/* XPM */
static char *a702ebf4f3074ab3aed9a838f6aa789eRePE03DQWuEtdacx[] = {
/* columns rows colors chars-per-pixel */
"32 32 72 1 ",
"  c None",
". c #670001",
"X c #7F0001",
"o c #920000",
"O c #960000",
"+ c #970001",
"@ c #990100",
"# c #9A0000",
"$ c #9A0100",
"% c #9C0000",
"& c #9E0000",
"* c #9F0000",
"= c #A20000",
"- c #A40000",
"; c #A60000",
": c #AA0000",
"> c #AB0000",
", c #AC0000",
"< c #AD0000",
"1 c #AE0000",
"2 c #AF0000",
"3 c #AF0100",
"4 c #AE0001",
"5 c #B00000",
"6 c #B10000",
"7 c #B20000",
"8 c #B30000",
"9 c #B30001",
"0 c #B40001",
"q c #C90101",
"w c #CA0001",
"e c #CC0001",
"r c #CD0001",
"t c #CE0001",
"y c #CF0001",
"u c #CE0002",
"i c #D10001",
"p c #D20001",
"a c #D30101",
"s c #D00002",
"d c #D10002",
"f c #D20002",
"g c #D20102",
"h c #D40001",
"j c #D60000",
"k c #D80100",
"l c #D80001",
"z c #DA0000",
"x c #DC0000",
"c c #DE0000",
"v c #DF0100",
"b c #E00000",
"n c #E20001",
"m c #E30001",
"M c #E50001",
"N c #E70100",
"B c #E60001",
"V c #E70001",
"C c #E80000",
"Z c #E90000",
"A c #E80001",
"S c #E90001",
"D c #EA0000",
"F c #EB0000",
"G c #EC0000",
"H c #ED0000",
"J c #EC0100",
"K c #ED0100",
"L c #EF0000",
"P c #EE0100",
"I c #F00000",
"U c #F20000",
/* pixels */
"                                ",
"                                ",
"                                ",
"                                ",
"         UUJUJJJJJJAJA          ",
"         UpX         A          ",
"         JpO$*;:     A          ",
"         Ap;=*.:40   M          ",
"         Ap:::::46   M          ",
"         At4444:44   n          ",
"         Mp4664444   n          ",
"         Mt4666444   n          ",
"         Mt4666444   n          ",
"         nt4606644   v          ",
"         nt4006444   n          ",
"         nt406644    n          ",
"         vq60664:    v          ",
"         nt4$044:    v          ",
"         vt4664:4:   v          ",
"         vq44444:4   v          ",
"         zq444444:   z          ",
"         vt:6644:4   z          ",
"         zt44644:4   z          ",
"         zp444444:   z          ",
"         zp444444:   j          ",
"         zj:66$::4   z          ",
"         zp:464:     j          ",
"         jj4o        j          ",
"         *O          $          ",
"                                ",
"                                ",
"                                "
};
