/* XPM */
static char *_24b2d2106714a69ae422684e9b2363cmvDspQPCyJVzqWdc[] = {
/* columns rows colors chars-per-pixel */
"32 32 112 2 ",
"   c #271902",
".  c #2B1C01",
"X  c #332506",
"o  c #3F2900",
"O  c #312308",
"+  c #3E300E",
"@  c #442D00",
"#  c #482F01",
"$  c #473001",
"%  c #4A3301",
"&  c #4F3902",
"*  c #4E360A",
"=  c #4F3A08",
"-  c #503501",
";  c #533B05",
":  c #593F06",
">  c #543D09",
",  c #574006",
"<  c #594106",
"1  c #57410A",
"2  c #5A430B",
"3  c #5C4612",
"4  c #5F4A13",
"5  c #754D01",
"6  c #7D5100",
"7  c #614A11",
"8  c #825700",
"9  c #845B03",
"0  c #8A5E01",
"q  c #8D6301",
"w  c #8E6409",
"e  c #926601",
"r  c #956A01",
"t  c #9A6D01",
"y  c #926709",
"u  c #956A0A",
"i  c #986C09",
"p  c #9D7201",
"a  c #9D730B",
"s  c #8E6310",
"d  c #976C12",
"f  c #996D11",
"g  c #9F7312",
"h  c #A17502",
"j  c #A57904",
"k  c #A97D06",
"l  c #A1760A",
"z  c #A1770B",
"x  c #A3770A",
"c  c #A57A0A",
"v  c #A67B0A",
"b  c #A57A0E",
"n  c #A67C0C",
"m  c #A87B0A",
"M  c #A97C0A",
"N  c #A97D0B",
"B  c #AC7F08",
"V  c #AA7E0E",
"C  c #A27610",
"Z  c #A17714",
"A  c #A37812",
"S  c #A47910",
"D  c #A47B11",
"F  c #A77C11",
"G  c #A67C13",
"H  c #A87E13",
"J  c #AA7E13",
"K  c #A87D16",
"L  c #A57719",
"P  c #A77C1B",
"I  c #AD8107",
"U  c #AC800B",
"Y  c #AD810B",
"T  c #AE810E",
"R  c #B08407",
"E  c #B0840B",
"W  c #B0830C",
"Q  c #B1850C",
"!  c #B2860E",
"~  c #B4880F",
"^  c #AC8012",
"/  c #AE8212",
"(  c #AF8512",
")  c #AD8314",
"_  c #AE8517",
"`  c #AD8218",
"'  c #AE811A",
"]  c #B18611",
"[  c #B38711",
"{  c #B08714",
"}  c #B38614",
"|  c #B28615",
" . c #B08417",
".. c #B48813",
"X. c #B58913",
"o. c #B78B13",
"O. c #B48817",
"+. c #B58B17",
"@. c #B68A16",
"#. c #B88C14",
"$. c #B88C15",
"%. c #B98D16",
"&. c #B28519",
"*. c #B3871A",
"=. c #B58919",
"-. c #B68A19",
";. c #B88D18",
":. c #BA8E1A",
">. c #BC9017",
",. c #BD9219",
"<. c #BD911B",
"1. c #BD911D",
/* pixels */
"q a A K F n r 0 q e e r e 0 8 - 8 y f y x j A t q r r e 0 e r 2 ",
"q h | ] ] ] h p h t r t q 0 8 @ 0 D  .&.h k :.M p t t p t t t ; ",
"q j m #.! E k h t j t h t t e : q K :.#.X.! | B v h h p t p r = ",
"r h k j / ~ j h t h e h h e q : e t j k M 1.&.k j h h h p t t ; ",
"r M k h V T T t h r r h t p t > e e h U <.#.1.O.U p j j h p t = ",
"e h U ] >.-.<.W h h r r p h r : 0 r h j X.#.-.j p p I p h p r , ",
"r p ] v ( V K ) a p p r t p e : 0 r t p | @._ t t t p j p t q % ",
"< ; 1 1 > 2 3 ; % $ % @ % % # O # # ; : 4 7 < , & , , = & & $ X ",
"q r y g u d w # w q q e e 0 0 0 q t r a g F A , 6 w r p e e q q ",
"r p J g ` A d # u r p p t t t t p p p M +.#._ 2 t u t v I p t t ",
"h ! #.! #.#.P * i r p h p p p h p k I +.;.U p ; g ` g ~ p I a p ",
"j j k h p M j % r p t h t t t t p p T ( X.j p , a U [ ~ j I I p ",
"j U h p h R D & q p t h t r t h p p I @.O.I p ; a j @.h p p j I ",
"h h p p p h r $ q r r t e r r h p p p h z -.a 1 p A U z I I j p ",
"H p p t t h a % q q q q 0 e r r e r r r p ^ A 2 u ` ) _ g v v j ",
"; : ; - % % $ . % # @ % @ # # % % % % & & ; 3 + 2 4 4 2 2 1 2 > ",
"w p i r i e e 0 q 0 q e 9 q q % 5 q t u i a a a a g y a t r u , ",
"H U k ] B h r t p t r h t t e % 0 t p h h k T @.+.( j M ^ p U 3 ",
"b B #.V :.h t t t h r t p t t 1 r h j ! &.[ O.1.( #.T <.E U _ 1 ",
"j M #.:.W t h t r r t r h p r < r h j V / U ] U U T 1.k M :.v $ ",
"z k ..B j t t t t h r t r p p ; q p h i I h U <.:._ ! @.,.P O.= ",
"D O.U t e t t t p p t t t r r % q p p h j p z / X.M h v _ u a * ",
"a ( h p q r e e t r e e t t e % 9 q t r t t p p t j z a g a y $ ",
"- 1 2 2 - ; & % & - % # # % # . & & 1 , , ; & $ $ % ; @ & % & . ",
"r a b r w q 9 % 5 q q r r q 0 q r r e r a 9 9 ; 9 9 y y y r i e ",
"p M p p t r t $ 8 r r p e p r r r t t h e h y # q q p e h e t t ",
"#.+./ U j h p $ 8 p p t h h h t h j R t t o./ ; q p h r j j r m ",
"X.<.T ( X.U j & y t r h e p t t t r I x -.k / - w 0 e h j k z k ",
"j @.X.X.! @.k $ w r t p p p t r e m <.#.] a v % u t t r e h j h ",
"t h U -.( h p $ 0 q t p t h t e t p L -.Z | j ; u t t e t j p p ",
"r r v _ H a r @ r q r e p e r t 0 r O.V g i D ; w q 0 0 e e t e ",
"@ % = 2 3 3 =   ; @ @ @ @ @ @ # o % > > 1 2 3 O ; % @ # @ @ @ @ "
};
