/* XPM */
static char *e36d9ef467b04681ffcf961a7cf0b298f1fLt7EIkpLPHu2q[] = {
/* columns rows colors chars-per-pixel */
"32 32 219 2 ",
"   c None",
".  c #6B0200",
"X  c #6D0701",
"o  c #6F0B02",
"O  c #750600",
"+  c #740701",
"@  c #760A01",
"#  c #710B05",
"$  c #700C06",
"%  c #790C00",
"&  c #7B0C01",
"*  c #790F02",
"=  c #751201",
"-  c #761002",
";  c #771207",
":  c #7B1302",
">  c #7F1905",
",  c #7E1806",
"<  c #701208",
"1  c #751509",
"2  c #761408",
"3  c #76150A",
"4  c #76150B",
"5  c #7A1609",
"6  c #77180E",
"7  c #771A0F",
"8  c #731510",
"9  c #771A10",
"0  c #751C10",
"q  c #791E15",
"w  c #6D3314",
"e  c #683415",
"r  c #6D351B",
"t  c #6C3818",
"y  c #703413",
"u  c #703614",
"i  c #733C1F",
"p  c #801A04",
"a  c #821B06",
"s  c #841D0A",
"d  c #821D11",
"f  c #842003",
"g  c #86210A",
"h  c #832408",
"j  c #87240B",
"k  c #882308",
"l  c #9F3F0E",
"z  c #812413",
"x  c #812513",
"c  c #832912",
"v  c #88311D",
"b  c #A02300",
"n  c #AC2C00",
"m  c #AD2C01",
"M  c #AD2D01",
"N  c #AE2D00",
"B  c #B12F00",
"V  c #B02F01",
"C  c #B12F01",
"Z  c #B22F01",
"A  c #A03F0D",
"S  c #B33101",
"D  c #B53001",
"F  c #B73403",
"G  c #B53F0B",
"H  c #BC3F09",
"J  c #89382D",
"K  c #B7420B",
"L  c #A14311",
"P  c #A24310",
"I  c #A44614",
"U  c #A04817",
"Y  c #A14C19",
"T  c #B84614",
"R  c #BE4A10",
"E  c #B54F1F",
"W  c #A34F20",
"Q  c #A44E22",
"!  c #BB5720",
"~  c #BB5D29",
"^  c #BF5B2C",
"/  c #B95C38",
"(  c #BA763A",
")  c #D7480B",
"_  c #D6490D",
"`  c #C14111",
"'  c #C34615",
"]  c #CE4812",
"[  c #C94815",
"{  c #CD4914",
"}  c #CE4F16",
"|  c #D04914",
" . c #CF5617",
".. c #C1541D",
"X. c #D35C1D",
"o. c #D85F1F",
"O. c #E0550E",
"+. c #E75410",
"@. c #E45917",
"#. c #EB6212",
"$. c #EC6314",
"%. c #ED6216",
"&. c #EE6417",
"*. c #EB6A1B",
"=. c #F46719",
"-. c #F26B1D",
";. c #C05525",
":. c #C45B28",
">. c #C35E2B",
",. c #C25C2F",
"<. c #D25F28",
"1. c #D86A2C",
"2. c #D77626",
"3. c #DA7120",
"4. c #EC6723",
"5. c #EF6723",
"6. c #E6911E",
"7. c #FEAF18",
"8. c #DC8324",
"9. c #C58037",
"0. c #C3823C",
"q. c #C2823D",
"w. c #C2813F",
"e. c #CF9338",
"r. c #E38225",
"t. c #E3812F",
"y. c #E4833B",
"u. c #F49E3A",
"i. c #DFA730",
"p. c #ECA12E",
"a. c #FAAF27",
"s. c #F3A229",
"d. c #F1A42C",
"f. c #F3AF2A",
"g. c #F2B027",
"h. c #FDBB2B",
"j. c #FDBA2D",
"k. c #F8BC2C",
"l. c #F9AF31",
"z. c #F2B535",
"x. c #FABD32",
"c. c #FCC837",
"v. c #FBC83B",
"b. c #B28146",
"n. c #B48546",
"m. c #B88544",
"M. c #C68E4B",
"N. c #DE9345",
"B. c #DB9845",
"V. c #D48F53",
"C. c #CE9252",
"Z. c #CA9355",
"A. c #CD9656",
"S. c #F79940",
"D. c #F39A45",
"F. c #E09A53",
"G. c #FBA54E",
"H. c #FDBD40",
"J. c #E3A452",
"K. c #E7A457",
"L. c #E8A551",
"P. c #E7A75D",
"I. c #F2AC5E",
"U. c #FDB35B",
"Y. c #CF996B",
"T. c #DFB17E",
"R. c #DDB27F",
"E. c #E3B57F",
"W. c #E5B47F",
"Q. c #F3C242",
"!. c #F8C141",
"~. c #FDC143",
"^. c #FAC647",
"/. c #FCCC43",
"(. c #FCCF4C",
"). c #FACC54",
"_. c #FBCF5B",
"`. c #F6C57A",
"'. c #DCAB81",
"]. c #DDB286",
"[. c #DDB18A",
"{. c #DEB791",
"}. c #E3B680",
"|. c #E2B681",
" X c #E4B782",
".X c #E6B882",
"XX c #E6BB86",
"oX c #E8B980",
"OX c #E7BB89",
"+X c #E4BB8D",
"@X c #F2BC84",
"#X c #ECC08A",
"$X c #EBC08C",
"%X c #ECC48D",
"&X c #F3C582",
"*X c #F9CE86",
"=X c #F4C78C",
"-X c #F9C689",
";X c #FAD788",
":X c #FAD38D",
">X c #ECC890",
",X c #EACB99",
"<X c #F6CE91",
"1X c #F9CE91",
"2X c #F9D591",
"3X c #F5D09B",
"4X c #F9D598",
"5X c #FAD698",
"6X c #FBDC9A",
"7X c #EBCFA0",
"8X c #EDD2A4",
"9X c #EED1AB",
"0X c #EED5AC",
"qX c #F4D2A8",
"wX c #EED5B7",
"eX c #F8DFBC",
"rX c #FFEDBA",
"tX c #FDEDBF",
"yX c #FEEFCA",
/* pixels */
"                                                                ",
"                                                                ",
"                                                                ",
"                                                                ",
"                                                                ",
"                                                                ",
"                              0 r e                             ",
"                            2 Y.].Z.Y u                         ",
"                            o ( |.,XXXA.W i                     ",
"                            2 f I q.|.,XwX].W w                 ",
"                          z B.p.>.k P q.OX8XOXZ.U w             ",
"                        # W.^.2X3XK.,.> P 0.].>XoXM.t           ",
"                        + @.-.I.:XH.<XP.:.a A 2.J.e.n.X         ",
"                      . b B ] *.x.c.4X1Xz.N.;.k L m.b.o         ",
"                      + m m B H u.7.S.4. .K 2.F.^ 5 <           ",
"                    * ' +.| [ <.`.!.1.F Z B ! qXV.*             ",
"                    E r.=.5.o.D.).;X@XX.$.%.y.'.v               ",
"                  , 8.k.G.-Xs.*X6X_.U.l.f.t.g 6                 ",
"                  ! f.a.=X4Xx./.rXyXeXOX~ :                     ",
"                p 3.&.} G L.c.h.Q.%X/ 5                         ",
"              h 6.%.] m m T 9X+Xx $                             ",
"            c |.&XR S S ` _ d 8                                 ",
"          = i.(.!.s.O.) * @                                     ",
"          6 %XrX0XT.s *                                         ",
"          2 [.{.J q                                             ",
"            9 9                                                 ",
"                                                                ",
"                                                                ",
"                                                                ",
"                                                                ",
"                                                                ",
"                                                                "
};
