/* XPM */
static char *_0d8cb99691a4b068cbe21a79c9a0edb9JtkMJQ5Si3tLPM3[] = {
/* columns rows colors chars-per-pixel */
"32 32 2 1 ",
"  c None",
". c black",
/* pixels */
"                                ",
"               .                ",
"            ....                ",
"        .       .......         ",
"       ..       .......         ",
"      ...       .......         ",
"     ....       .......         ",
"    .....       .......         ",
"   ......       .......         ",
"         .......       ......   ",
"         .......       ......   ",
"         .......       ......   ",
"  .      .......       ......   ",
"  .      .......       ......   ",
"  .      .......       ......   ",
" ..      .......       ......   ",
"   ......       .......      .. ",
"   ......       .......      .  ",
"   ......       .......      .  ",
"   ......       .......      .  ",
"   ......       .......         ",
"   ......       .......         ",
"   ......       .......         ",
"         .......       ......   ",
"         .......       .....    ",
"         .......       ....     ",
"         .......       ...      ",
"         .......       ..       ",
"         .......       .        ",
"                ....            ",
"                .               ",
"                                "
};
