/* XPM */
static char *c11195f00278411a8e8df73b767ee6f0pLdm4JvJQlkmDX9y[] = {
/* columns rows colors chars-per-pixel */
"32 32 86 1 ",
"  c None",
". c #010101",
"X c #070808",
"o c #0A0B0B",
"O c #0D1010",
"+ c #131414",
"@ c #1A1C1C",
"# c #1B1F20",
"$ c #232324",
"% c #2B2C2C",
"& c #2C2F31",
"* c #2D3132",
"= c #353636",
"- c #34393A",
"; c #3A3D3E",
": c #3A3E40",
"> c #3D4142",
", c #434545",
"< c #474D4F",
"1 c #4C4C4C",
"2 c #494F51",
"3 c #515253",
"4 c #5A5C5C",
"5 c #5F6365",
"6 c #5F6668",
"7 c #626364",
"8 c #606668",
"9 c #646C6E",
"0 c #696A6A",
"q c #676E70",
"w c #686F70",
"e c #6B7477",
"r c #6F7578",
"t c #747676",
"y c #737779",
"u c #73787A",
"i c #797A79",
"p c #7D8284",
"a c #7E888C",
"s c #808A8D",
"d c #838E91",
"f c #869194",
"g c #8D9193",
"h c #8A9598",
"j c #959696",
"k c #969A9C",
"l c #9A9D9D",
"z c #939DA1",
"x c #999FA0",
"c c #97A1A5",
"v c #9AA2A5",
"b c #9BA6A9",
"n c #A0A3A3",
"m c #A3AAAC",
"M c #A9ABAB",
"N c #A3AEB0",
"B c #AAAFB1",
"V c #A7B1B4",
"C c #AAB3B5",
"Z c #AEB5B8",
"A c #B3BABC",
"S c #B9BABA",
"D c #B7BFC1",
"F c #B8BFC2",
"G c #BBC2C4",
"H c #BEC6C9",
"J c #C5CBCC",
"K c #CBCDCE",
"L c #C6CED1",
"P c #C9CFD1",
"I c #CDD2D3",
"U c #D3D5D6",
"Y c #D2D7D9",
"T c #D6DBDC",
"R c #DADDDE",
"E c #DCDFE0",
"W c #DDE2E3",
"Q c #E0E3E4",
"! c #E4E7E8",
"~ c #E6E9E9",
"^ c #EBEDED",
"/ c #EEEFF0",
"( c #EFF1F1",
") c #F3F4F4",
"_ c #F7F8F8",
"` c #FDFDFD",
/* pixels */
"                                ",
"                                ",
"                                ",
"           ..oo@@oo..           ",
"         .X5AYWQQWYA5X.         ",
"       .oylyW_````_)!PuX.       ",
"      .*ZB;i(```````_(WZ*.      ",
"     .,J~US)``````````_Wpo.     ",
"    .-J!)`````````````_K;g-.    ",
"    OGW)__`````````````UUQG+    ",
"   .vT^))(/)````````)/)))^Tv.   ",
"  .*JQ)TCbzzG``````GzkbCR)WP&.  ",
"  .bY/Pm&X.o8C````C8X.X%mP(Yb.  ",
"  +HWRko.....9W``Q9.....okEWH@  ",
"  ;J(U@......+K``K+......@U^J;  ",
" .6P(g........J`_K........g/I8. ",
" .yI)4.......+E)_E+.......4)Uy. ",
" .qP`t.......i())/y.......t`P9. ",
" .<G)To.....$Q((^)Q$.....oR)G2. ",
"  @ZR`Mo..X1^^^jn~^^1X..oM`RZ@  ",
"  XcGW)_UK^/!~7$%0~!/^KU)_WGcX  ",
"  .;9gIRQQRWEQlJSjQWQRQQWIGV>.  ",
"   .2mGJPUUlRTRRRRRTlUUKJGCa.   ",
"    +hCAJJn=PtYMMYtP=nJJVmh+    ",
"    .@dVAGG,4o4>>4+4,GGAu:@.    ",
"     .OebVAAK,l33l,JAAVbeo.     ",
"       .-acNCVAxlANCmba-.       ",
"        ..#9fzcbbbzf9#..        ",
"           ..XoOOoX..           ",
"                                ",
"                                ",
"                                "
};
